# xmcd
#
# Track frame offsets: 
#        150
#        11669
#        28855
#        46210
#        63319
#        80469
#        91308
#        111793
#        126025
#        144175
#        163399
#        180597
#        198907
#
# Disc length: 2899 seconds
#
# Revision: 1
# Processed by: cddbd v1.5.2PL0 Copyright (c) Steve Scherf et al.
# Submitted via: ExactAudioCopyFreeDBPlugin 1.0
#
DISCID=a70b510d
DTITLE=Sven Zetterberg - Hollerin' Up A Storm
DYEAR=2007
DGENRE=Blues
TTITLE0=Jukejoint
TTITLE1=Too Old For The City
TTITLE2=Ain't No Hurry To Go Home
TTITLE3=Hollerin' Up A Storm
TTITLE4=Middle Ground
TTITLE5=The Shoeshine
TTITLE6=Close Talker
TTITLE7=Why Don't You Like Your Job
TTITLE8=Fallin' Apart
TTITLE9=Parade Square Jamboree
TTITLE10=Gonna Get Smart
TTITLE11=Mr. Clean's Got A Dirty Mind
TTITLE12=Such Behavior Won't Do
EXTD=
EXTT0=
EXTT1=
EXTT2=
EXTT3=
EXTT4=
EXTT5=
EXTT6=
EXTT7=
EXTT8=
EXTT9=
EXTT10=
EXTT11=
EXTT12=
PLAYORDER=
